<?xml version="1.0" standalone="no"?><svg xmlns:xlink="http://www.w3.org/1999/xlink" xmlns="http://www.w3.org/2000/svg" viewBox="0 0 1000 583.3358151909542" preserveAspectRatio="xMaxYMax slice"><g transform="scale(0.9927430483168043)"><rect x="0" y="0" width="1007.3142857142858" height="587.6" fill="#ffffff"/><rect x="0" y="0" width="83.94285714285715" height="83.94285714285715" fill="#ffffff"/><rect x="0" y="0" width="41.97" height="41.97" fill="#e9ecfc"/><path d="M 0 0 A 41.97 41.97 0 0 1 41.97 41.97 L 0 41.97" fill="#ffbdcd"/><rect x="41.97" y="0" width="41.97" height="41.97" fill="#6982ec"/><path d="M 41.97 0 A 41.97 41.97 0 0 1 83.94 41.97 L 41.97 41.97" fill="#90a3f1"/><rect x="0" y="41.97" width="41.97" height="41.97" fill="#cdd5f8"/><path d="M 0 83.94 A 41.97 41.97 0 0 1  41.97 41.97 L 0 83.94 A 41.97 41.97 0 0 0 41.97 41.97" fill="#e2e7fb"/><rect x="41.97" y="41.97" width="41.97" height="41.97" fill="#ffced9"/><path d="M 41.97 83.94 A 41.97 41.97 0 0 1  83.94 41.97 L 41.97 83.94 A 41.97 41.97 0 0 0 83.94 41.97" fill="#ffbccc"/><rect x="83.94" y="0" width="83.94" height="83.94" fill="#5571e9"/><path d="M 83.94 83.94 A 83.94 83.94 0 0 1  167.88 0 L 83.94 83.94 A 83.94 83.94 0 0 0 167.88 0" fill="#ffe2e9"/><rect x="167.89" y="0" width="83.94" height="83.94" fill="#1c43e2"/><path d="M 167.89 83.94 A 83.94 83.94 0 0 1  251.82999999999998 0 L 251.82999999999998 83.94" fill="#ff9eb5"/><rect x="251.83" y="0" width="83.94" height="83.94" fill="#8196ef"/><path d="M 251.83 83.94 A 83.94 83.94 0 0 1  335.77 0 L 251.83 83.94 A 83.94 83.94 0 0 0 335.77 0" fill="#ff85a2"/><rect x="335.7714285714286" y="0" width="83.94285714285715" height="83.94285714285715" fill="#ffffff"/><rect x="335.77" y="0" width="41.97" height="41.97" fill="#ff5980"/><path d="M 335.77 0 A 41.97 41.97 0 0 1 377.74 41.97 L 335.77 41.97" fill="#4464e7"/><rect x="377.74" y="0" width="41.97" height="41.97" fill="#506de8"/><path d="M 377.74 41.97 A 41.97 41.97 0 0 1  419.71000000000004 0 L 419.71000000000004 41.97" fill="#ffd1dc"/><rect x="335.77" y="41.97" width="41.97" height="41.97" fill="#ffa3b9"/><path d="M 335.77 83.94 A 41.97 41.97 0 0 0 377.74 41.97 L 335.77 41.97" fill="#4363e7"/><rect x="377.74" y="41.97" width="41.97" height="41.97" fill="#90a3f1"/><path d="M 377.74 41.97 A 41.97 41.97 0 0 1  419.71000000000004 83.94 L 377.74 41.97 A 41.97 41.97 0 0 0 419.71000000000004 83.94" fill="#5471e9"/><rect x="419.71" y="0" width="83.94" height="83.94" fill="#2f52e4"/><path d="M 419.71 0 A 83.94 83.94 0 0 1 503.65 83.94 L 419.71 83.94" fill="#8ca0f0"/><rect x="503.66" y="0" width="83.94" height="83.94" fill="#ffb3c5"/><path d="M 503.66 83.94 A 83.94 83.94 0 0 0 587.6 0 L 503.66 0" fill="#6a83ec"/><rect x="587.6" y="0" width="83.94" height="83.94" fill="#fff4f7"/><path d="M 587.6 0 A 83.94 83.94 0 0 0 671.54 83.94 L 671.54 0" fill="#193fe1"/><rect x="671.54" y="0" width="83.94" height="83.94" fill="#f5f6fe"/><path d="M 671.54 83.94 A 83.94 83.94 0 0 1  755.48 0 L 755.48 83.94" fill="#ffa7bc"/><rect x="755.4857142857144" y="0" width="83.94285714285715" height="83.94285714285715" fill="#ffffff"/><rect x="755.49" y="0" width="41.97" height="41.97" fill="#ff5880"/><path d="M 755.49 0 A 41.97 41.97 0 0 0 797.46 41.97 L 797.46 0" fill="#b8c4f6"/><rect x="797.46" y="0" width="41.97" height="41.97" fill="#ced6f9"/><path d="M 797.46 0 A 41.97 41.97 0 0 0 839.4300000000001 41.97 L 839.4300000000001 0" fill="#1a40e1"/><rect x="755.49" y="41.97" width="41.97" height="41.97" fill="#c5cff7"/><path d="M 755.49 41.97 A 41.97 41.97 0 0 1 797.46 83.94 L 755.49 83.94" fill="#617ceb"/><rect x="797.46" y="41.97" width="41.97" height="41.97" fill="#3557e5"/><path d="M 797.46 41.97 A 41.97 41.97 0 0 0 839.4300000000001 83.94 L 839.4300000000001 41.97" fill="#ffaec1"/><rect x="839.43" y="0" width="83.94" height="83.94" fill="#f9fafe"/><path d="M 839.43 0 A 83.94 83.94 0 0 1  923.3699999999999 83.94 L 839.43 0 A 83.94 83.94 0 0 0 923.3699999999999 83.94" fill="#2549e3"/><rect x="923.3714285714286" y="0" width="83.94285714285715" height="83.94285714285715" fill="#ffffff"/><rect x="923.37" y="0" width="41.97" height="41.97" fill="#e1e6fb"/><path d="M 923.37 0 A 41.97 41.97 0 0 1 965.34 41.97 L 923.37 41.97" fill="#ff6b8e"/><rect x="965.34" y="0" width="41.97" height="41.97" fill="#ff91ab"/><path d="M 965.34 0 A 41.97 41.97 0 0 0 1007.3100000000001 41.97 L 1007.3100000000001 0" fill="#abb9f4"/><rect x="923.37" y="41.97" width="41.97" height="41.97" fill="#edf0fd"/><path d="M 923.37 41.97 A 41.97 41.97 0 0 1 965.34 83.94 L 923.37 83.94" fill="#a6b5f3"/><rect x="965.34" y="41.97" width="41.97" height="41.97" fill="#7f95ee"/><path d="M 965.34 83.94 A 41.97 41.97 0 0 0 1007.3100000000001 41.97 L 965.34 41.97" fill="#2c4fe4"/><rect x="0" y="83.94" width="83.94" height="83.94" fill="#5370e9"/><path d="M 0 167.88 A 83.94 83.94 0 0 1  83.94 83.94 L 0 167.88 A 83.94 83.94 0 0 0 83.94 83.94" fill="#ff6086"/><rect x="83.94285714285715" y="83.94285714285715" width="83.94285714285715" height="83.94285714285715" fill="#ffffff"/><rect x="83.94" y="83.94" width="41.97" height="41.97" fill="#ff4370"/><path d="M 83.94 125.91 A 41.97 41.97 0 0 1  125.91 83.94 L 125.91 125.91" fill="#ff97b0"/><rect x="125.91" y="83.94" width="41.97" height="41.97" fill="#fff8fa"/><path d="M 125.91 125.91 A 41.97 41.97 0 0 1  167.88 83.94 L 167.88 125.91" fill="#ff9ab2"/><rect x="83.94" y="125.91" width="41.97" height="41.97" fill="#fff6f8"/><path d="M 83.94 125.91 A 41.97 41.97 0 0 1  125.91 167.88 L 83.94 125.91 A 41.97 41.97 0 0 0 125.91 167.88" fill="#fff7f9"/><rect x="125.91" y="125.91" width="41.97" height="41.97" fill="#788fee"/><path d="M 125.91 167.88 A 41.97 41.97 0 0 0 167.88 125.91 L 125.91 125.91" fill="#ff6086"/><rect x="167.8857142857143" y="83.94285714285715" width="83.94285714285715" height="83.94285714285715" fill="#ffffff"/><rect x="167.89" y="83.94" width="41.97" height="41.97" fill="#ffb7c8"/><path d="M 167.89 125.91 A 41.97 41.97 0 0 0 209.85999999999999 83.94 L 167.89 83.94" fill="#ff3d6b"/><rect x="209.86" y="83.94" width="41.97" height="41.97" fill="#8da0f0"/><path d="M 209.86 83.94 A 41.97 41.97 0 0 0 251.83 125.91 L 251.83 83.94" fill="#ff688c"/><rect x="167.89" y="125.91" width="41.97" height="41.97" fill="#a7b6f4"/><path d="M 167.89 125.91 A 41.97 41.97 0 0 1 209.85999999999999 167.88 L 167.89 167.88" fill="#4e6ce8"/><rect x="209.86" y="125.91" width="41.97" height="41.97" fill="#7e94ee"/><path d="M 209.86 125.91 A 41.97 41.97 0 0 0 251.83 167.88 L 251.83 125.91" fill="#ff678b"/><rect x="251.82857142857145" y="83.94285714285715" width="83.94285714285715" height="83.94285714285715" fill="#ffffff"/><rect x="251.83" y="83.94" width="41.97" height="41.97" fill="#ffc5d3"/><path d="M 251.83 83.94 A 41.97 41.97 0 0 0 293.8 125.91 L 293.8 83.94" fill="#b1bef5"/><rect x="293.8" y="83.94" width="41.97" height="41.97" fill="#ffaabe"/><path d="M 293.8 125.91 A 41.97 41.97 0 0 0 335.77 83.94 L 293.8 83.94" fill="#ff416e"/><rect x="251.83" y="125.91" width="41.97" height="41.97" fill="#1a41e1"/><path d="M 251.83 167.88 A 41.97 41.97 0 0 1  293.8 125.91 L 251.83 167.88 A 41.97 41.97 0 0 0 293.8 125.91" fill="#ff7797"/><rect x="293.8" y="125.91" width="41.97" height="41.97" fill="#a2b2f3"/><path d="M 293.8 125.91 A 41.97 41.97 0 0 0 335.77 167.88 L 335.77 125.91" fill="#eceffd"/><rect x="335.77" y="83.94" width="83.94" height="83.94" fill="#ff4571"/><path d="M 335.77 83.94 A 83.94 83.94 0 0 1 419.71 167.88 L 335.77 167.88" fill="#ffb9c9"/><rect x="419.7142857142858" y="83.94285714285715" width="83.94285714285715" height="83.94285714285715" fill="#ffffff"/><rect x="419.71" y="83.94" width="41.97" height="41.97" fill="#fafbfe"/><path d="M 419.71 125.91 A 41.97 41.97 0 0 1  461.67999999999995 83.94 L 419.71 125.91 A 41.97 41.97 0 0 0 461.67999999999995 83.94" fill="#cbd4f8"/><rect x="461.69" y="83.94" width="41.97" height="41.97" fill="#4665e7"/><path d="M 461.69 83.94 A 41.97 41.97 0 0 0 503.65999999999997 125.91 L 503.65999999999997 83.94" fill="#bdc8f6"/><rect x="419.71" y="125.91" width="41.97" height="41.97" fill="#ffd9e2"/><path d="M 419.71 125.91 A 41.97 41.97 0 0 0 461.67999999999995 167.88 L 461.67999999999995 125.91" fill="#d0d8f9"/><rect x="461.69" y="125.91" width="41.97" height="41.97" fill="#ffe8ed"/><path d="M 461.69 125.91 A 41.97 41.97 0 0 1 503.65999999999997 167.88 L 461.69 167.88" fill="#ff3a69"/><rect x="503.66" y="83.94" width="83.94" height="83.94" fill="#ff95ae"/><path d="M 503.66 83.94 A 83.94 83.94 0 0 1  587.6 167.88 L 503.66 83.94 A 83.94 83.94 0 0 0 587.6 167.88" fill="#ffd4df"/><rect x="587.6" y="83.94" width="83.94" height="83.94" fill="#eaeefc"/><path d="M 587.6 83.94 A 83.94 83.94 0 0 0 671.54 167.88 L 671.54 83.94" fill="#ffccd8"/><rect x="671.54" y="83.94" width="83.94" height="83.94" fill="#8a9ef0"/><path d="M 671.54 83.94 A 83.94 83.94 0 0 1 755.48 167.88 L 671.54 167.88" fill="#ff6288"/><rect x="755.49" y="83.94" width="83.94" height="83.94" fill="#9bacf2"/><path d="M 755.49 83.94 A 83.94 83.94 0 0 1 839.4300000000001 167.88 L 755.49 167.88" fill="#b8c4f6"/><rect x="839.4285714285716" y="83.94285714285715" width="83.94285714285715" height="83.94285714285715" fill="#ffffff"/><rect x="839.43" y="83.94" width="41.97" height="41.97" fill="#f9fafe"/><path d="M 839.43 125.91 A 41.97 41.97 0 0 1  881.4 83.94 L 839.43 125.91 A 41.97 41.97 0 0 0 881.4 83.94" fill="#7e94ee"/><rect x="881.4" y="83.94" width="41.97" height="41.97" fill="#fff1f4"/><path d="M 881.4 83.94 A 41.97 41.97 0 0 1 923.37 125.91 L 881.4 125.91" fill="#7b91ee"/><rect x="839.43" y="125.91" width="41.97" height="41.97" fill="#ffd5df"/><path d="M 839.43 167.88 A 41.97 41.97 0 0 0 881.4 125.91 L 839.43 125.91" fill="#ffc8d5"/><rect x="881.4" y="125.91" width="41.97" height="41.97" fill="#e7ebfc"/><path d="M 881.4 167.88 A 41.97 41.97 0 0 0 923.37 125.91 L 881.4 125.91" fill="#91a3f1"/><rect x="923.3714285714286" y="83.94285714285715" width="83.94285714285715" height="83.94285714285715" fill="#ffffff"/><rect x="923.37" y="83.94" width="41.97" height="41.97" fill="#607bea"/><path d="M 923.37 83.94 A 41.97 41.97 0 0 1 965.34 125.91 L 923.37 125.91" fill="#fffafb"/><rect x="965.34" y="83.94" width="41.97" height="41.97" fill="#91a3f1"/><path d="M 965.34 125.91 A 41.97 41.97 0 0 0 1007.3100000000001 83.94 L 965.34 83.94" fill="#ff5e85"/><rect x="923.37" y="125.91" width="41.97" height="41.97" fill="#ff4470"/><path d="M 923.37 167.88 A 41.97 41.97 0 0 0 965.34 125.91 L 923.37 125.91" fill="#3a5ce5"/><rect x="965.34" y="125.91" width="41.97" height="41.97" fill="#ff3d6b"/><path d="M 965.34 167.88 A 41.97 41.97 0 0 1  1007.3100000000001 125.91 L 1007.3100000000001 167.88" fill="#3e5ee6"/><rect x="0" y="167.89" width="83.94" height="83.94" fill="#ff527b"/><path d="M 0 251.82999999999998 A 83.94 83.94 0 0 0 83.94 167.89 L 0 167.89" fill="#fffbfc"/><rect x="83.94285714285715" y="167.8857142857143" width="83.94285714285715" height="83.94285714285715" fill="#ffffff"/><rect x="83.94" y="167.89" width="41.97" height="41.97" fill="#ff6388"/><path d="M 83.94 167.89 A 41.97 41.97 0 0 0 125.91 209.85999999999999 L 125.91 167.89" fill="#ffa9bd"/><rect x="125.91" y="167.89" width="41.97" height="41.97" fill="#e3e8fb"/><path d="M 125.91 209.85999999999999 A 41.97 41.97 0 0 0 167.88 167.89 L 125.91 167.89" fill="#f6f7fe"/><rect x="83.94" y="209.86" width="41.97" height="41.97" fill="#ffabbf"/><path d="M 83.94 209.86 A 41.97 41.97 0 0 0 125.91 251.83 L 125.91 209.86" fill="#ffc4d2"/><rect x="125.91" y="209.86" width="41.97" height="41.97" fill="#506ee8"/><path d="M 125.91 251.83 A 41.97 41.97 0 0 1  167.88 209.86 L 167.88 251.83" fill="#b5c1f5"/><rect x="167.89" y="167.89" width="83.94" height="83.94" fill="#ffe8ee"/><path d="M 167.89 167.89 A 83.94 83.94 0 0 1  251.82999999999998 251.82999999999998 L 167.89 167.89 A 83.94 83.94 0 0 0 251.82999999999998 251.82999999999998" fill="#ff89a5"/><rect x="251.83" y="167.89" width="83.94" height="83.94" fill="#ff87a4"/><path d="M 251.83 251.82999999999998 A 83.94 83.94 0 0 0 335.77 167.89 L 251.83 167.89" fill="#ff4b76"/><rect x="335.7714285714286" y="167.8857142857143" width="83.94285714285715" height="83.94285714285715" fill="#ffffff"/><rect x="335.77" y="167.89" width="41.97" height="41.97" fill="#5471e9"/><path d="M 335.77 209.85999999999999 A 41.97 41.97 0 0 0 377.74 167.89 L 335.77 167.89" fill="#ffe7ed"/><rect x="377.74" y="167.89" width="41.97" height="41.97" fill="#899df0"/><path d="M 377.74 167.89 A 41.97 41.97 0 0 1  419.71000000000004 209.85999999999999 L 377.74 167.89 A 41.97 41.97 0 0 0 419.71000000000004 209.85999999999999" fill="#a2b1f3"/><rect x="335.77" y="209.86" width="41.97" height="41.97" fill="#ffc2d1"/><path d="M 335.77 251.83 A 41.97 41.97 0 0 1  377.74 209.86 L 377.74 251.83" fill="#7e94ee"/><rect x="377.74" y="209.86" width="41.97" height="41.97" fill="#bbc7f6"/><path d="M 377.74 251.83 A 41.97 41.97 0 0 1  419.71000000000004 209.86 L 377.74 251.83 A 41.97 41.97 0 0 0 419.71000000000004 209.86" fill="#ff9fb6"/><rect x="419.7142857142858" y="167.8857142857143" width="83.94285714285715" height="83.94285714285715" fill="#ffffff"/><rect x="419.71" y="167.89" width="41.97" height="41.97" fill="#ffc3d1"/><path d="M 419.71 167.89 A 41.97 41.97 0 0 1  461.67999999999995 209.85999999999999 L 419.71 167.89 A 41.97 41.97 0 0 0 461.67999999999995 209.85999999999999" fill="#eceffd"/><rect x="461.69" y="167.89" width="41.97" height="41.97" fill="#4968e7"/><path d="M 461.69 167.89 A 41.97 41.97 0 0 1 503.65999999999997 209.85999999999999 L 461.69 209.85999999999999" fill="#5572e9"/><rect x="419.71" y="209.86" width="41.97" height="41.97" fill="#2147e2"/><path d="M 419.71 251.83 A 41.97 41.97 0 0 0 461.67999999999995 209.86 L 419.71 209.86" fill="#254ae3"/><rect x="461.69" y="209.86" width="41.97" height="41.97" fill="#8196ef"/><path d="M 461.69 209.86 A 41.97 41.97 0 0 0 503.65999999999997 251.83 L 503.65999999999997 209.86" fill="#9aabf2"/><rect x="503.66" y="167.89" width="83.94" height="83.94" fill="#c9d2f8"/><path d="M 503.66 251.82999999999998 A 83.94 83.94 0 0 1  587.6 167.89 L 503.66 251.82999999999998 A 83.94 83.94 0 0 0 587.6 167.89" fill="#274be3"/><rect x="587.6" y="167.8857142857143" width="83.94285714285715" height="83.94285714285715" fill="#ffffff"/><rect x="587.6" y="167.89" width="41.97" height="41.97" fill="#ff94ae"/><path d="M 587.6 167.89 A 41.97 41.97 0 0 1 629.57 209.85999999999999 L 587.6 209.85999999999999" fill="#fdfdff"/><rect x="629.57" y="167.89" width="41.97" height="41.97" fill="#4a68e7"/><path d="M 629.57 209.85999999999999 A 41.97 41.97 0 0 1  671.5400000000001 167.89 L 671.5400000000001 209.85999999999999" fill="#506de8"/><rect x="587.6" y="209.86" width="41.97" height="41.97" fill="#ff9eb5"/><path d="M 587.6 209.86 A 41.97 41.97 0 0 0 629.57 251.83 L 629.57 209.86" fill="#647eeb"/><rect x="629.57" y="209.86" width="41.97" height="41.97" fill="#cdd6f9"/><path d="M 629.57 209.86 A 41.97 41.97 0 0 1  671.5400000000001 251.83 L 629.57 209.86 A 41.97 41.97 0 0 0 671.5400000000001 251.83" fill="#7b92ee"/><rect x="671.54" y="167.89" width="83.94" height="83.94" fill="#ff6a8d"/><path d="M 671.54 167.89 A 83.94 83.94 0 0 1  755.48 251.82999999999998 L 671.54 167.89 A 83.94 83.94 0 0 0 755.48 251.82999999999998" fill="#ff9bb3"/><rect x="755.49" y="167.89" width="83.94" height="83.94" fill="#a2b1f3"/><path d="M 755.49 251.82999999999998 A 83.94 83.94 0 0 1  839.4300000000001 167.89 L 839.4300000000001 251.82999999999998" fill="#4363e7"/><rect x="839.43" y="167.89" width="83.94" height="83.94" fill="#6f87ec"/><path d="M 839.43 251.82999999999998 A 83.94 83.94 0 0 0 923.3699999999999 167.89 L 839.43 167.89" fill="#ffc3d1"/><rect x="923.37" y="167.89" width="83.94" height="83.94" fill="#ff99b1"/><path d="M 923.37 167.89 A 83.94 83.94 0 0 1 1007.31 251.82999999999998 L 923.37 251.82999999999998" fill="#ffdce5"/><rect x="0" y="251.83" width="83.94" height="83.94" fill="#2d50e4"/><path d="M 0 335.77 A 83.94 83.94 0 0 1  83.94 251.83 L 83.94 335.77" fill="#3154e4"/><rect x="83.94" y="251.83" width="83.94" height="83.94" fill="#fefeff"/><path d="M 83.94 251.83 A 83.94 83.94 0 0 0 167.88 335.77 L 167.88 251.83" fill="#6983ec"/><rect x="167.8857142857143" y="251.82857142857145" width="83.94285714285715" height="83.94285714285715" fill="#ffffff"/><rect x="167.89" y="251.83" width="41.97" height="41.97" fill="#ffd6e0"/><path d="M 167.89 293.8 A 41.97 41.97 0 0 0 209.85999999999999 251.83 L 167.89 251.83" fill="#ff809e"/><rect x="209.86" y="251.83" width="41.97" height="41.97" fill="#a9b8f4"/><path d="M 209.86 251.83 A 41.97 41.97 0 0 0 251.83 293.8 L 251.83 251.83" fill="#9dadf2"/><rect x="167.89" y="293.8" width="41.97" height="41.97" fill="#ff83a1"/><path d="M 167.89 293.8 A 41.97 41.97 0 0 0 209.85999999999999 335.77 L 209.85999999999999 293.8" fill="#ffd8e1"/><rect x="209.86" y="293.8" width="41.97" height="41.97" fill="#95a7f1"/><path d="M 209.86 335.77 A 41.97 41.97 0 0 0 251.83 293.8 L 209.86 293.8" fill="#4d6be8"/><rect x="251.82857142857145" y="251.82857142857145" width="83.94285714285715" height="83.94285714285715" fill="#ffffff"/><rect x="251.83" y="251.83" width="41.97" height="41.97" fill="#ffebf0"/><path d="M 251.83 251.83 A 41.97 41.97 0 0 1 293.8 293.8 L 251.83 293.8" fill="#ff88a4"/><rect x="293.8" y="251.83" width="41.97" height="41.97" fill="#4766e7"/><path d="M 293.8 293.8 A 41.97 41.97 0 0 0 335.77 251.83 L 293.8 251.83" fill="#9bacf2"/><rect x="251.83" y="293.8" width="41.97" height="41.97" fill="#ff406d"/><path d="M 251.83 293.8 A 41.97 41.97 0 0 1  293.8 335.77 L 251.83 293.8 A 41.97 41.97 0 0 0 293.8 335.77" fill="#516fe8"/><rect x="293.8" y="293.8" width="41.97" height="41.97" fill="#aebcf4"/><path d="M 293.8 335.77 A 41.97 41.97 0 0 1  335.77 293.8 L 293.8 335.77 A 41.97 41.97 0 0 0 335.77 293.8" fill="#ffdde5"/><rect x="335.7714285714286" y="251.82857142857145" width="83.94285714285715" height="83.94285714285715" fill="#ffffff"/><rect x="335.77" y="251.83" width="41.97" height="41.97" fill="#ff92ac"/><path d="M 335.77 251.83 A 41.97 41.97 0 0 1 377.74 293.8 L 335.77 293.8" fill="#4464e7"/><rect x="377.74" y="251.83" width="41.97" height="41.97" fill="#5a76ea"/><path d="M 377.74 293.8 A 41.97 41.97 0 0 0 419.71000000000004 251.83 L 377.74 251.83" fill="#bfcaf7"/><rect x="335.77" y="293.8" width="41.97" height="41.97" fill="#ff5e84"/><path d="M 335.77 293.8 A 41.97 41.97 0 0 1 377.74 335.77 L 335.77 335.77" fill="#6c85ec"/><rect x="377.74" y="293.8" width="41.97" height="41.97" fill="#2146e2"/><path d="M 377.74 293.8 A 41.97 41.97 0 0 0 419.71000000000004 335.77 L 419.71000000000004 293.8" fill="#ffc7d4"/><rect x="419.7142857142858" y="251.82857142857145" width="83.94285714285715" height="83.94285714285715" fill="#ffffff"/><rect x="419.71" y="251.83" width="41.97" height="41.97" fill="#ff6187"/><path d="M 419.71 251.83 A 41.97 41.97 0 0 0 461.67999999999995 293.8 L 461.67999999999995 251.83" fill="#d5dcfa"/><rect x="461.69" y="251.83" width="41.97" height="41.97" fill="#ffedf2"/><path d="M 461.69 251.83 A 41.97 41.97 0 0 0 503.65999999999997 293.8 L 503.65999999999997 251.83" fill="#ff3867"/><rect x="419.71" y="293.8" width="41.97" height="41.97" fill="#ffcad7"/><path d="M 419.71 293.8 A 41.97 41.97 0 0 0 461.67999999999995 335.77 L 461.67999999999995 293.8" fill="#ff4f79"/><rect x="461.69" y="293.8" width="41.97" height="41.97" fill="#ffa4b9"/><path d="M 461.69 293.8 A 41.97 41.97 0 0 1 503.65999999999997 335.77 L 461.69 335.77" fill="#5e79ea"/><rect x="503.66" y="251.83" width="83.94" height="83.94" fill="#ff5c83"/><path d="M 503.66 251.83 A 83.94 83.94 0 0 1 587.6 335.77 L 503.66 335.77" fill="#859aef"/><rect x="587.6" y="251.83" width="83.94" height="83.94" fill="#ffedf1"/><path d="M 587.6 251.83 A 83.94 83.94 0 0 0 671.54 335.77 L 671.54 251.83" fill="#ff6388"/><rect x="671.5428571428572" y="251.82857142857145" width="83.94285714285715" height="83.94285714285715" fill="#ffffff"/><rect x="671.54" y="251.83" width="41.97" height="41.97" fill="#ffedf1"/><path d="M 671.54 293.8 A 41.97 41.97 0 0 1  713.51 251.83 L 671.54 293.8 A 41.97 41.97 0 0 0 713.51 251.83" fill="#4b6ae8"/><rect x="713.51" y="251.83" width="41.97" height="41.97" fill="#ffc7d4"/><path d="M 713.51 251.83 A 41.97 41.97 0 0 0 755.48 293.8 L 755.48 251.83" fill="#4060e6"/><rect x="671.54" y="293.8" width="41.97" height="41.97" fill="#ff87a4"/><path d="M 671.54 335.77 A 41.97 41.97 0 0 1  713.51 293.8 L 671.54 335.77 A 41.97 41.97 0 0 0 713.51 293.8" fill="#b9c5f6"/><rect x="713.51" y="293.8" width="41.97" height="41.97" fill="#d4dbf9"/><path d="M 713.51 293.8 A 41.97 41.97 0 0 1 755.48 335.77 L 713.51 335.77" fill="#ffc1cf"/><rect x="755.49" y="251.83" width="83.94" height="83.94" fill="#f2f4fd"/><path d="M 755.49 251.83 A 83.94 83.94 0 0 1 839.4300000000001 335.77 L 755.49 335.77" fill="#8498ef"/><rect x="839.43" y="251.83" width="83.94" height="83.94" fill="#ffb2c4"/><path d="M 839.43 251.83 A 83.94 83.94 0 0 1 923.3699999999999 335.77 L 839.43 335.77" fill="#4161e6"/><rect x="923.3714285714286" y="251.82857142857145" width="83.94285714285715" height="83.94285714285715" fill="#ffffff"/><rect x="923.37" y="251.83" width="41.97" height="41.97" fill="#ff3767"/><path d="M 923.37 293.8 A 41.97 41.97 0 0 1  965.34 251.83 L 923.37 293.8 A 41.97 41.97 0 0 0 965.34 251.83" fill="#ff688c"/><rect x="965.34" y="251.83" width="41.97" height="41.97" fill="#ffb4c6"/><path d="M 965.34 293.8 A 41.97 41.97 0 0 0 1007.3100000000001 251.83 L 965.34 251.83" fill="#2449e3"/><rect x="923.37" y="293.8" width="41.97" height="41.97" fill="#ff4974"/><path d="M 923.37 335.77 A 41.97 41.97 0 0 0 965.34 293.8 L 923.37 293.8" fill="#abb9f4"/><rect x="965.34" y="293.8" width="41.97" height="41.97" fill="#ff7f9d"/><path d="M 965.34 293.8 A 41.97 41.97 0 0 1 1007.3100000000001 335.77 L 965.34 335.77" fill="#ff9ab2"/><rect x="0" y="335.7714285714286" width="83.94285714285715" height="83.94285714285715" fill="#ffffff"/><rect x="0" y="335.77" width="41.97" height="41.97" fill="#ff84a1"/><path d="M 0 377.74 A 41.97 41.97 0 0 1  41.97 335.77 L 41.97 377.74" fill="#ffd4de"/><rect x="41.97" y="335.77" width="41.97" height="41.97" fill="#637eeb"/><path d="M 41.97 335.77 A 41.97 41.97 0 0 1 83.94 377.74 L 41.97 377.74" fill="#ff557d"/><rect x="0" y="377.74" width="41.97" height="41.97" fill="#ffccd8"/><path d="M 0 419.71000000000004 A 41.97 41.97 0 0 1  41.97 377.74 L 0 419.71000000000004 A 41.97 41.97 0 0 0 41.97 377.74" fill="#8b9ef0"/><rect x="41.97" y="377.74" width="41.97" height="41.97" fill="#ff819f"/><path d="M 41.97 377.74 A 41.97 41.97 0 0 0 83.94 419.71000000000004 L 83.94 377.74" fill="#90a3f1"/><rect x="83.94285714285715" y="335.7714285714286" width="83.94285714285715" height="83.94285714285715" fill="#ffffff"/><rect x="83.94" y="335.77" width="41.97" height="41.97" fill="#fff3f6"/><path d="M 83.94 335.77 A 41.97 41.97 0 0 1  125.91 377.74 L 83.94 335.77 A 41.97 41.97 0 0 0 125.91 377.74" fill="#ff3968"/><rect x="125.91" y="335.77" width="41.97" height="41.97" fill="#647eeb"/><path d="M 125.91 377.74 A 41.97 41.97 0 0 1  167.88 335.77 L 167.88 377.74" fill="#ffd0db"/><rect x="83.94" y="377.74" width="41.97" height="41.97" fill="#fffefe"/><path d="M 83.94 377.74 A 41.97 41.97 0 0 0 125.91 419.71000000000004 L 125.91 377.74" fill="#4665e7"/><rect x="125.91" y="377.74" width="41.97" height="41.97" fill="#ffa7bc"/><path d="M 125.91 419.71000000000004 A 41.97 41.97 0 0 1  167.88 377.74 L 125.91 419.71000000000004 A 41.97 41.97 0 0 0 167.88 377.74" fill="#ff537c"/><rect x="167.8857142857143" y="335.7714285714286" width="83.94285714285715" height="83.94285714285715" fill="#ffffff"/><rect x="167.89" y="335.77" width="41.97" height="41.97" fill="#ffbacb"/><path d="M 167.89 335.77 A 41.97 41.97 0 0 1  209.85999999999999 377.74 L 167.89 335.77 A 41.97 41.97 0 0 0 209.85999999999999 377.74" fill="#ff9fb6"/><rect x="209.86" y="335.77" width="41.97" height="41.97" fill="#3f5fe6"/><path d="M 209.86 335.77 A 41.97 41.97 0 0 0 251.83 377.74 L 251.83 335.77" fill="#ff86a3"/><rect x="167.89" y="377.74" width="41.97" height="41.97" fill="#7e94ee"/><path d="M 167.89 377.74 A 41.97 41.97 0 0 1  209.85999999999999 419.71000000000004 L 167.89 377.74 A 41.97 41.97 0 0 0 209.85999999999999 419.71000000000004" fill="#dee4fb"/><rect x="209.86" y="377.74" width="41.97" height="41.97" fill="#ebeffc"/><path d="M 209.86 377.74 A 41.97 41.97 0 0 1  251.83 419.71000000000004 L 209.86 377.74 A 41.97 41.97 0 0 0 251.83 419.71000000000004" fill="#ffa6bb"/><rect x="251.82857142857145" y="335.7714285714286" width="83.94285714285715" height="83.94285714285715" fill="#ffffff"/><rect x="251.83" y="335.77" width="41.97" height="41.97" fill="#ff9bb2"/><path d="M 251.83 377.74 A 41.97 41.97 0 0 1  293.8 335.77 L 251.83 377.74 A 41.97 41.97 0 0 0 293.8 335.77" fill="#ff809f"/><rect x="293.8" y="335.77" width="41.97" height="41.97" fill="#9faff3"/><path d="M 293.8 335.77 A 41.97 41.97 0 0 0 335.77 377.74 L 335.77 335.77" fill="#627ceb"/><rect x="251.83" y="377.74" width="41.97" height="41.97" fill="#ff426f"/><path d="M 251.83 377.74 A 41.97 41.97 0 0 0 293.8 419.71000000000004 L 293.8 377.74" fill="#788fed"/><rect x="293.8" y="377.74" width="41.97" height="41.97" fill="#ff87a4"/><path d="M 293.8 419.71000000000004 A 41.97 41.97 0 0 1  335.77 377.74 L 293.8 419.71000000000004 A 41.97 41.97 0 0 0 335.77 377.74" fill="#fafbfe"/><rect x="335.77" y="335.77" width="83.94" height="83.94" fill="#4463e7"/><path d="M 335.77 419.71 A 83.94 83.94 0 0 1  419.71 335.77 L 419.71 419.71" fill="#6d86ec"/><rect x="419.7142857142858" y="335.7714285714286" width="83.94285714285715" height="83.94285714285715" fill="#ffffff"/><rect x="419.71" y="335.77" width="41.97" height="41.97" fill="#d4dbf9"/><path d="M 419.71 377.74 A 41.97 41.97 0 0 0 461.67999999999995 335.77 L 419.71 335.77" fill="#ff6187"/><rect x="461.69" y="335.77" width="41.97" height="41.97" fill="#385ae5"/><path d="M 461.69 335.77 A 41.97 41.97 0 0 0 503.65999999999997 377.74 L 503.65999999999997 335.77" fill="#2046e2"/><rect x="419.71" y="377.74" width="41.97" height="41.97" fill="#395ae5"/><path d="M 419.71 419.71000000000004 A 41.97 41.97 0 0 1  461.67999999999995 377.74 L 461.67999999999995 419.71000000000004" fill="#ff3968"/><rect x="461.69" y="377.74" width="41.97" height="41.97" fill="#3456e5"/><path d="M 461.69 419.71000000000004 A 41.97 41.97 0 0 1  503.65999999999997 377.74 L 461.69 419.71000000000004 A 41.97 41.97 0 0 0 503.65999999999997 377.74" fill="#183fe1"/><rect x="503.6571428571429" y="335.7714285714286" width="83.94285714285715" height="83.94285714285715" fill="#ffffff"/><rect x="503.66" y="335.77" width="41.97" height="41.97" fill="#f6f8fe"/><path d="M 503.66 377.74 A 41.97 41.97 0 0 1  545.63 335.77 L 545.63 377.74" fill="#7088ec"/><rect x="545.63" y="335.77" width="41.97" height="41.97" fill="#d6ddfa"/><path d="M 545.63 335.77 A 41.97 41.97 0 0 1  587.6 377.74 L 545.63 335.77 A 41.97 41.97 0 0 0 587.6 377.74" fill="#c1cbf7"/><rect x="503.66" y="377.74" width="41.97" height="41.97" fill="#ffaec2"/><path d="M 503.66 377.74 A 41.97 41.97 0 0 0 545.63 419.71000000000004 L 545.63 377.74" fill="#f1f3fd"/><rect x="545.63" y="377.74" width="41.97" height="41.97" fill="#e9edfc"/><path d="M 545.63 419.71000000000004 A 41.97 41.97 0 0 1  587.6 377.74 L 545.63 419.71000000000004 A 41.97 41.97 0 0 0 587.6 377.74" fill="#ffe2e9"/><rect x="587.6" y="335.77" width="83.94" height="83.94" fill="#fff1f4"/><path d="M 587.6 419.71 A 83.94 83.94 0 0 1  671.54 335.77 L 671.54 419.71" fill="#ff698d"/><rect x="671.54" y="335.77" width="83.94" height="83.94" fill="#2147e2"/><path d="M 671.54 335.77 A 83.94 83.94 0 0 1 755.48 419.71 L 671.54 419.71" fill="#6881eb"/><rect x="755.49" y="335.77" width="83.94" height="83.94" fill="#ff4572"/><path d="M 755.49 335.77 A 83.94 83.94 0 0 0 839.4300000000001 419.71 L 839.4300000000001 335.77" fill="#ff4470"/><rect x="839.43" y="335.77" width="83.94" height="83.94" fill="#ff507a"/><path d="M 839.43 419.71 A 83.94 83.94 0 0 0 923.3699999999999 335.77 L 839.43 335.77" fill="#637deb"/><rect x="923.37" y="335.77" width="83.94" height="83.94" fill="#ff3767"/><path d="M 923.37 419.71 A 83.94 83.94 0 0 1  1007.31 335.77 L 1007.31 419.71" fill="#f1f3fd"/><rect x="0" y="419.71" width="83.94" height="83.94" fill="#5b77ea"/><path d="M 0 503.65 A 83.94 83.94 0 0 1  83.94 419.71 L 0 503.65 A 83.94 83.94 0 0 0 83.94 419.71" fill="#f6f8fe"/><rect x="83.94285714285715" y="419.7142857142858" width="83.94285714285715" height="83.94285714285715" fill="#ffffff"/><rect x="83.94" y="419.71" width="41.97" height="41.97" fill="#ffeaef"/><path d="M 83.94 419.71 A 41.97 41.97 0 0 1 125.91 461.67999999999995 L 83.94 461.67999999999995" fill="#eceffd"/><rect x="125.91" y="419.71" width="41.97" height="41.97" fill="#ffa1b8"/><path d="M 125.91 461.67999999999995 A 41.97 41.97 0 0 1  167.88 419.71 L 167.88 461.67999999999995" fill="#ff8aa6"/><rect x="83.94" y="461.69" width="41.97" height="41.97" fill="#8196ef"/><path d="M 83.94 503.65999999999997 A 41.97 41.97 0 0 0 125.91 461.69 L 83.94 461.69" fill="#ffebf0"/><rect x="125.91" y="461.69" width="41.97" height="41.97" fill="#fff5f7"/><path d="M 125.91 503.65999999999997 A 41.97 41.97 0 0 1  167.88 461.69 L 125.91 503.65999999999997 A 41.97 41.97 0 0 0 167.88 461.69" fill="#ff8ba7"/><rect x="167.8857142857143" y="419.7142857142858" width="83.94285714285715" height="83.94285714285715" fill="#ffffff"/><rect x="167.89" y="419.71" width="41.97" height="41.97" fill="#748bed"/><path d="M 167.89 461.67999999999995 A 41.97 41.97 0 0 1  209.85999999999999 419.71 L 209.85999999999999 461.67999999999995" fill="#ffc5d3"/><rect x="209.86" y="419.71" width="41.97" height="41.97" fill="#3a5be5"/><path d="M 209.86 419.71 A 41.97 41.97 0 0 0 251.83 461.67999999999995 L 251.83 419.71" fill="#ff7696"/><rect x="167.89" y="461.69" width="41.97" height="41.97" fill="#fafbfe"/><path d="M 167.89 461.69 A 41.97 41.97 0 0 0 209.85999999999999 503.65999999999997 L 209.85999999999999 461.69" fill="#6a83ec"/><rect x="209.86" y="461.69" width="41.97" height="41.97" fill="#ff6c8f"/><path d="M 209.86 503.65999999999997 A 41.97 41.97 0 0 0 251.83 461.69 L 209.86 461.69" fill="#ffe8ee"/><rect x="251.82857142857145" y="419.7142857142858" width="83.94285714285715" height="83.94285714285715" fill="#ffffff"/><rect x="251.83" y="419.71" width="41.97" height="41.97" fill="#fbfcff"/><path d="M 251.83 419.71 A 41.97 41.97 0 0 1  293.8 461.67999999999995 L 251.83 419.71 A 41.97 41.97 0 0 0 293.8 461.67999999999995" fill="#ff89a5"/><rect x="293.8" y="419.71" width="41.97" height="41.97" fill="#264be3"/><path d="M 293.8 461.67999999999995 A 41.97 41.97 0 0 1  335.77 419.71 L 335.77 461.67999999999995" fill="#ffbecd"/><rect x="251.83" y="461.69" width="41.97" height="41.97" fill="#ff6287"/><path d="M 251.83 503.65999999999997 A 41.97 41.97 0 0 1  293.8 461.69 L 251.83 503.65999999999997 A 41.97 41.97 0 0 0 293.8 461.69" fill="#fff8fa"/><rect x="293.8" y="461.69" width="41.97" height="41.97" fill="#ffa8bc"/><path d="M 293.8 503.65999999999997 A 41.97 41.97 0 0 1  335.77 461.69 L 293.8 503.65999999999997 A 41.97 41.97 0 0 0 335.77 461.69" fill="#b2bff5"/><rect x="335.7714285714286" y="419.7142857142858" width="83.94285714285715" height="83.94285714285715" fill="#ffffff"/><rect x="335.77" y="419.71" width="41.97" height="41.97" fill="#ffe5eb"/><path d="M 335.77 461.67999999999995 A 41.97 41.97 0 0 1  377.74 419.71 L 335.77 461.67999999999995 A 41.97 41.97 0 0 0 377.74 419.71" fill="#ff5980"/><rect x="377.74" y="419.71" width="41.97" height="41.97" fill="#3255e4"/><path d="M 377.74 419.71 A 41.97 41.97 0 0 1  419.71000000000004 461.67999999999995 L 377.74 419.71 A 41.97 41.97 0 0 0 419.71000000000004 461.67999999999995" fill="#93a5f1"/><rect x="335.77" y="461.69" width="41.97" height="41.97" fill="#ff9fb5"/><path d="M 335.77 461.69 A 41.97 41.97 0 0 1 377.74 503.65999999999997 L 335.77 503.65999999999997" fill="#3456e5"/><rect x="377.74" y="461.69" width="41.97" height="41.97" fill="#3457e5"/><path d="M 377.74 503.65999999999997 A 41.97 41.97 0 0 1  419.71000000000004 461.69 L 419.71000000000004 503.65999999999997" fill="#788eed"/><rect x="419.71" y="419.71" width="83.94" height="83.94" fill="#7189ed"/><path d="M 419.71 419.71 A 83.94 83.94 0 0 1 503.65 503.65 L 419.71 503.65" fill="#dde3fb"/><rect x="503.6571428571429" y="419.7142857142858" width="83.94285714285715" height="83.94285714285715" fill="#ffffff"/><rect x="503.66" y="419.71" width="41.97" height="41.97" fill="#ff8aa6"/><path d="M 503.66 461.67999999999995 A 41.97 41.97 0 0 1  545.63 419.71 L 503.66 461.67999999999995 A 41.97 41.97 0 0 0 545.63 419.71" fill="#ffbbcb"/><rect x="545.63" y="419.71" width="41.97" height="41.97" fill="#ffc5d3"/><path d="M 545.63 419.71 A 41.97 41.97 0 0 1 587.6 461.67999999999995 L 545.63 461.67999999999995" fill="#ff5a81"/><rect x="503.66" y="461.69" width="41.97" height="41.97" fill="#a1b1f3"/><path d="M 503.66 461.69 A 41.97 41.97 0 0 1  545.63 503.65999999999997 L 503.66 461.69 A 41.97 41.97 0 0 0 545.63 503.65999999999997" fill="#193fe1"/><rect x="545.63" y="461.69" width="41.97" height="41.97" fill="#ffd9e2"/><path d="M 545.63 461.69 A 41.97 41.97 0 0 1  587.6 503.65999999999997 L 545.63 461.69 A 41.97 41.97 0 0 0 587.6 503.65999999999997" fill="#8196ef"/><rect x="587.6" y="419.7142857142858" width="83.94285714285715" height="83.94285714285715" fill="#ffffff"/><rect x="587.6" y="419.71" width="41.97" height="41.97" fill="#ffaec1"/><path d="M 587.6 419.71 A 41.97 41.97 0 0 1 629.57 461.67999999999995 L 587.6 461.67999999999995" fill="#8398ef"/><rect x="629.57" y="419.71" width="41.97" height="41.97" fill="#d6ddfa"/><path d="M 629.57 419.71 A 41.97 41.97 0 0 1 671.5400000000001 461.67999999999995 L 629.57 461.67999999999995" fill="#ff4974"/><rect x="587.6" y="461.69" width="41.97" height="41.97" fill="#1940e1"/><path d="M 587.6 461.69 A 41.97 41.97 0 0 1  629.57 503.65999999999997 L 587.6 461.69 A 41.97 41.97 0 0 0 629.57 503.65999999999997" fill="#90a3f1"/><rect x="629.57" y="461.69" width="41.97" height="41.97" fill="#d2daf9"/><path d="M 629.57 461.69 A 41.97 41.97 0 0 0 671.5400000000001 503.65999999999997 L 671.5400000000001 461.69" fill="#879bef"/><rect x="671.5428571428572" y="419.7142857142858" width="83.94285714285715" height="83.94285714285715" fill="#ffffff"/><rect x="671.54" y="419.71" width="41.97" height="41.97" fill="#3356e5"/><path d="M 671.54 461.67999999999995 A 41.97 41.97 0 0 1  713.51 419.71 L 713.51 461.67999999999995" fill="#b5c2f5"/><rect x="713.51" y="419.71" width="41.97" height="41.97" fill="#1940e1"/><path d="M 713.51 419.71 A 41.97 41.97 0 0 1 755.48 461.67999999999995 L 713.51 461.67999999999995" fill="#ff7294"/><rect x="671.54" y="461.69" width="41.97" height="41.97" fill="#ff82a0"/><path d="M 671.54 461.69 A 41.97 41.97 0 0 1  713.51 503.65999999999997 L 671.54 461.69 A 41.97 41.97 0 0 0 713.51 503.65999999999997" fill="#ff6a8d"/><rect x="713.51" y="461.69" width="41.97" height="41.97" fill="#ffc2d0"/><path d="M 713.51 503.65999999999997 A 41.97 41.97 0 0 0 755.48 461.69 L 713.51 461.69" fill="#eceffd"/><rect x="755.4857142857144" y="419.7142857142858" width="83.94285714285715" height="83.94285714285715" fill="#ffffff"/><rect x="755.49" y="419.71" width="41.97" height="41.97" fill="#ff6f91"/><path d="M 755.49 461.67999999999995 A 41.97 41.97 0 0 1  797.46 419.71 L 755.49 461.67999999999995 A 41.97 41.97 0 0 0 797.46 419.71" fill="#ffbfce"/><rect x="797.46" y="419.71" width="41.97" height="41.97" fill="#ff3d6b"/><path d="M 797.46 419.71 A 41.97 41.97 0 0 0 839.4300000000001 461.67999999999995 L 839.4300000000001 419.71" fill="#274ce3"/><rect x="755.49" y="461.69" width="41.97" height="41.97" fill="#9aabf2"/><path d="M 755.49 461.69 A 41.97 41.97 0 0 1 797.46 503.65999999999997 L 755.49 503.65999999999997" fill="#ff99b1"/><rect x="797.46" y="461.69" width="41.97" height="41.97" fill="#ff4e78"/><path d="M 797.46 503.65999999999997 A 41.97 41.97 0 0 0 839.4300000000001 461.69 L 797.46 461.69" fill="#ffe4eb"/><rect x="839.43" y="419.71" width="83.94" height="83.94" fill="#1b41e1"/><path d="M 839.43 419.71 A 83.94 83.94 0 0 1  923.3699999999999 503.65 L 839.43 419.71 A 83.94 83.94 0 0 0 923.3699999999999 503.65" fill="#ff4c77"/><rect x="923.37" y="419.71" width="83.94" height="83.94" fill="#5370e9"/><path d="M 923.37 503.65 A 83.94 83.94 0 0 1  1007.31 419.71 L 1007.31 503.65" fill="#c3cdf7"/><rect x="0" y="503.66" width="83.94" height="83.94" fill="#ff9fb6"/><path d="M 0 503.66 A 83.94 83.94 0 0 1 83.94 587.6 L 0 587.6" fill="#2d50e4"/><rect x="83.94" y="503.66" width="83.94" height="83.94" fill="#c5cef7"/><path d="M 83.94 587.6 A 83.94 83.94 0 0 0 167.88 503.66 L 83.94 503.66" fill="#eef1fd"/><rect x="167.8857142857143" y="503.6571428571429" width="83.94285714285715" height="83.94285714285715" fill="#ffffff"/><rect x="167.89" y="503.66" width="41.97" height="41.97" fill="#ff688c"/><path d="M 167.89 503.66 A 41.97 41.97 0 0 1  209.85999999999999 545.63 L 167.89 503.66 A 41.97 41.97 0 0 0 209.85999999999999 545.63" fill="#e6ebfc"/><rect x="209.86" y="503.66" width="41.97" height="41.97" fill="#8095ee"/><path d="M 209.86 503.66 A 41.97 41.97 0 0 1  251.83 545.63 L 209.86 503.66 A 41.97 41.97 0 0 0 251.83 545.63" fill="#ff4d77"/><rect x="167.89" y="545.63" width="41.97" height="41.97" fill="#99abf2"/><path d="M 167.89 587.6 A 41.97 41.97 0 0 1  209.85999999999999 545.63 L 209.85999999999999 587.6" fill="#3658e5"/><rect x="209.86" y="545.63" width="41.97" height="41.97" fill="#ffaec1"/><path d="M 209.86 587.6 A 41.97 41.97 0 0 0 251.83 545.63 L 209.86 545.63" fill="#ff3f6c"/><rect x="251.83" y="503.66" width="83.94" height="83.94" fill="#657feb"/><path d="M 251.83 587.6 A 83.94 83.94 0 0 0 335.77 503.66 L 251.83 503.66" fill="#3f60e6"/><rect x="335.7714285714286" y="503.6571428571429" width="83.94285714285715" height="83.94285714285715" fill="#ffffff"/><rect x="335.77" y="503.66" width="41.97" height="41.97" fill="#9aabf2"/><path d="M 335.77 503.66 A 41.97 41.97 0 0 0 377.74 545.63 L 377.74 503.66" fill="#ffffff"/><rect x="377.74" y="503.66" width="41.97" height="41.97" fill="#d7defa"/><path d="M 377.74 503.66 A 41.97 41.97 0 0 1  419.71000000000004 545.63 L 377.74 503.66 A 41.97 41.97 0 0 0 419.71000000000004 545.63" fill="#8297ef"/><rect x="335.77" y="545.63" width="41.97" height="41.97" fill="#ffb1c3"/><path d="M 335.77 545.63 A 41.97 41.97 0 0 1 377.74 587.6 L 335.77 587.6" fill="#ff819f"/><rect x="377.74" y="545.63" width="41.97" height="41.97" fill="#e9ecfc"/><path d="M 377.74 587.6 A 41.97 41.97 0 0 1  419.71000000000004 545.63 L 419.71000000000004 587.6" fill="#aab8f4"/><rect x="419.71" y="503.66" width="83.94" height="83.94" fill="#e3e8fb"/><path d="M 419.71 587.6 A 83.94 83.94 0 0 1  503.65 503.66 L 503.65 587.6" fill="#ffb3c5"/><rect x="503.6571428571429" y="503.6571428571429" width="83.94285714285715" height="83.94285714285715" fill="#ffffff"/><rect x="503.66" y="503.66" width="41.97" height="41.97" fill="#ff7394"/><path d="M 503.66 503.66 A 41.97 41.97 0 0 1 545.63 545.63 L 503.66 545.63" fill="#ff3f6d"/><rect x="545.63" y="503.66" width="41.97" height="41.97" fill="#ffb9ca"/><path d="M 545.63 503.66 A 41.97 41.97 0 0 0 587.6 545.63 L 587.6 503.66" fill="#ff92ac"/><rect x="503.66" y="545.63" width="41.97" height="41.97" fill="#ffaec2"/><path d="M 503.66 545.63 A 41.97 41.97 0 0 0 545.63 587.6 L 545.63 545.63" fill="#758ced"/><rect x="545.63" y="545.63" width="41.97" height="41.97" fill="#3b5ce6"/><path d="M 545.63 545.63 A 41.97 41.97 0 0 1 587.6 587.6 L 545.63 587.6" fill="#ff9fb6"/><rect x="587.6" y="503.66" width="83.94" height="83.94" fill="#ff4672"/><path d="M 587.6 587.6 A 83.94 83.94 0 0 0 671.54 503.66 L 587.6 503.66" fill="#fff8fa"/><rect x="671.5428571428572" y="503.6571428571429" width="83.94285714285715" height="83.94285714285715" fill="#ffffff"/><rect x="671.54" y="503.66" width="41.97" height="41.97" fill="#cdd6f9"/><path d="M 671.54 545.63 A 41.97 41.97 0 0 1  713.51 503.66 L 671.54 545.63 A 41.97 41.97 0 0 0 713.51 503.66" fill="#1f45e2"/><rect x="713.51" y="503.66" width="41.97" height="41.97" fill="#ffedf1"/><path d="M 713.51 545.63 A 41.97 41.97 0 0 0 755.48 503.66 L 713.51 503.66" fill="#ffacc0"/><rect x="671.54" y="545.63" width="41.97" height="41.97" fill="#3d5de6"/><path d="M 671.54 545.63 A 41.97 41.97 0 0 0 713.51 587.6 L 713.51 545.63" fill="#5b77ea"/><rect x="713.51" y="545.63" width="41.97" height="41.97" fill="#a6b5f3"/><path d="M 713.51 545.63 A 41.97 41.97 0 0 1 755.48 587.6 L 713.51 587.6" fill="#5d78ea"/><rect x="755.49" y="503.66" width="83.94" height="83.94" fill="#dee4fb"/><path d="M 755.49 587.6 A 83.94 83.94 0 0 1  839.4300000000001 503.66 L 755.49 587.6 A 83.94 83.94 0 0 0 839.4300000000001 503.66" fill="#7c92ee"/><rect x="839.43" y="503.66" width="83.94" height="83.94" fill="#ff577f"/><path d="M 839.43 587.6 A 83.94 83.94 0 0 1  923.3699999999999 503.66 L 839.43 587.6 A 83.94 83.94 0 0 0 923.3699999999999 503.66" fill="#cbd4f8"/><rect x="923.3714285714286" y="503.6571428571429" width="83.94285714285715" height="83.94285714285715" fill="#ffffff"/><rect x="923.37" y="503.66" width="41.97" height="41.97" fill="#ff6287"/><path d="M 923.37 545.63 A 41.97 41.97 0 0 0 965.34 503.66 L 923.37 503.66" fill="#f2f4fd"/><rect x="965.34" y="503.66" width="41.97" height="41.97" fill="#ffdee6"/><path d="M 965.34 545.63 A 41.97 41.97 0 0 0 1007.3100000000001 503.66 L 965.34 503.66" fill="#7990ee"/><rect x="923.37" y="545.63" width="41.97" height="41.97" fill="#ff5e84"/><path d="M 923.37 587.6 A 41.97 41.97 0 0 0 965.34 545.63 L 923.37 545.63" fill="#728aed"/><rect x="965.34" y="545.63" width="41.97" height="41.97" fill="#ffe1e8"/><path d="M 965.34 587.6 A 41.97 41.97 0 0 0 1007.3100000000001 545.63 L 965.34 545.63" fill="#2147e2"/></g></svg>